<svg width="40" height="40" viewBox="0 0 40 40" fill="none" xmlns="http://www.w3.org/2000/svg">
  <rect width="40" height="40" rx="20" fill="#242b3d"/>
  <path d="M20 10C16.13 10 13 13.13 13 17C13 19.57 14.46 21.78 16.62 22.81C14.34 23.87 12.62 25.71 11.88 28H13.95C14.69 26.24 16.24 24.89 18.12 24.37C18.73 24.18 19.36 24.09 20 24.09C20.64 24.09 21.27 24.18 21.88 24.37C23.76 24.89 25.31 26.24 26.05 28H28.12C27.38 25.71 25.66 23.87 23.38 22.81C25.54 21.78 27 19.57 27 17C27 13.13 23.87 10 20 10ZM20 22C17.24 22 15 19.76 15 17C15 14.24 17.24 12 20 12C22.76 12 25 14.24 25 17C25 19.76 22.76 22 20 22Z" fill="#b388ff"/>
</svg>